# xmcd
# 
# Track frame offsets:
#     150
#     17342
#     33755
#     49095
#     61900
#     79315
#     89825
#     103612
#     119095
#     129752
#     141612
#     156105
# 
# Disc length: 2273
# 
# Revision: 4
# Processed by: cddbd v1.5.2PL0 Copyright (c) Steve Scherf et al.
# Submitted via: fre:ac v1.0.27
# 
DISCID=9f08df0c
DTITLE=The Righteous Brothers - Unchained Melody
DYEAR=2002
DGENRE=Blues
TTITLE0=You've Lost That Lovin' Feelin'
TTITLE1=Unchained Melody
TTITLE2=(You're My) Soul and Inspiration
TTITLE3=Ebb Tide
TTITLE4=Just Once In My Life
TTITLE5=The White Cliffs of Dover
TTITLE6=He
TTITLE7=Hung On You
TTITLE8=Little Latin Lupe Lu
TTITLE9=Go Ahead and Cry
TTITLE10=See That Girl
TTITLE11=On This Side of Goodbye
EXTD=
EXTT0=
EXTT1=
EXTT2=
EXTT3=
EXTT4=
EXTT5=
EXTT6=
EXTT7=
EXTT8=
EXTT9=
EXTT10=
EXTT11=
PLAYORDER=
